# MagicaVoxel @ Ephtracy

# group
g Arvore3

# material
mtllib Arvore3.mtl
usemtl palette

# normals
vn -1 0 0
vn 1 0 0
vn 0 0 1
vn 0 0 -1
vn 0 -1 0
vn 0 1 0

# texcoords
vt 0.970703 0.5
vt 0.978516 0.5
vt 0.982422 0.5

# verts
v -5 4 8
v -5 4 -4
v -5 6 8
v -5 6 -4
v -5 10 8
v -5 10 -4
v -5 12 8
v -5 12 -4
v -5 16 8
v -5 16 -4
v -5 18 8
v -5 18 -4
v -5 20 8
v -5 20 -4
v -5 22 8
v -5 22 -4
v -4 2 7
v -4 2 -3
v -4 4 7
v -4 4 -3
v -4 6 7
v -4 6 -3
v -4 10 7
v -4 10 -3
v -4 12 7
v -4 12 -3
v -4 16 7
v -4 16 -3
v -4 18 7
v -4 18 -3
v -4 20 7
v -4 20 -3
v -4 22 7
v -4 22 -3
v -4 24 7
v -4 24 -3
v 0 0 3
v 0 0 1
v 0 2 3
v 0 2 1
v 2 0 3
v 2 0 1
v 2 2 3
v 2 2 1
v 6 2 7
v 6 2 -3
v 6 4 7
v 6 4 -3
v 6 6 7
v 6 6 -3
v 6 10 7
v 6 10 -3
v 6 12 7
v 6 12 -3
v 6 16 7
v 6 16 -3
v 6 18 7
v 6 18 -3
v 6 20 7
v 6 20 -3
v 6 22 7
v 6 22 -3
v 6 24 7
v 6 24 -3
v 7 4 8
v 7 4 -4
v 7 6 8
v 7 6 -4
v 7 10 8
v 7 10 -4
v 7 12 8
v 7 12 -4
v 7 16 8
v 7 16 -4
v 7 18 8
v 7 18 -4
v 7 20 8
v 7 20 -4
v 7 22 8
v 7 22 -4
v -5 4 8
v -5 6 8
v -5 10 8
v -5 12 8
v -5 16 8
v -5 18 8
v -5 20 8
v -5 22 8
v 7 4 8
v 7 6 8
v 7 10 8
v 7 12 8
v 7 16 8
v 7 18 8
v 7 20 8
v 7 22 8
v -4 2 7
v -4 4 7
v -4 6 7
v -4 10 7
v -4 12 7
v -4 16 7
v -4 18 7
v -4 20 7
v -4 22 7
v -4 24 7
v 6 2 7
v 6 4 7
v 6 6 7
v 6 10 7
v 6 12 7
v 6 16 7
v 6 18 7
v 6 20 7
v 6 22 7
v 6 24 7
v 0 0 3
v 0 2 3
v 2 0 3
v 2 2 3
v 0 0 1
v 0 2 1
v 2 0 1
v 2 2 1
v -4 2 -3
v -4 4 -3
v -4 6 -3
v -4 10 -3
v -4 12 -3
v -4 16 -3
v -4 18 -3
v -4 20 -3
v -4 22 -3
v -4 24 -3
v 6 2 -3
v 6 4 -3
v 6 6 -3
v 6 10 -3
v 6 12 -3
v 6 16 -3
v 6 18 -3
v 6 20 -3
v 6 22 -3
v 6 24 -3
v -5 4 -4
v -5 6 -4
v -5 10 -4
v -5 12 -4
v -5 16 -4
v -5 18 -4
v -5 20 -4
v -5 22 -4
v 7 4 -4
v 7 6 -4
v 7 10 -4
v 7 12 -4
v 7 16 -4
v 7 18 -4
v 7 20 -4
v 7 22 -4
v 0 0 3
v 2 0 3
v 0 0 1
v 2 0 1
v -4 2 7
v 6 2 7
v 0 2 3
v 2 2 3
v 0 2 1
v 2 2 1
v -4 2 -3
v 6 2 -3
v -5 4 8
v 7 4 8
v -4 4 7
v 6 4 7
v -4 4 -3
v 6 4 -3
v -5 4 -4
v 7 4 -4
v -5 10 8
v 7 10 8
v -4 10 7
v 6 10 7
v -4 10 -3
v 6 10 -3
v -5 10 -4
v 7 10 -4
v -5 16 8
v 7 16 8
v -4 16 7
v 6 16 7
v -4 16 -3
v 6 16 -3
v -5 16 -4
v 7 16 -4
v -5 20 8
v 7 20 8
v -4 20 7
v 6 20 7
v -4 20 -3
v 6 20 -3
v -5 20 -4
v 7 20 -4
v -5 6 8
v 7 6 8
v -4 6 7
v 6 6 7
v -4 6 -3
v 6 6 -3
v -5 6 -4
v 7 6 -4
v -5 12 8
v 7 12 8
v -4 12 7
v 6 12 7
v -4 12 -3
v 6 12 -3
v -5 12 -4
v 7 12 -4
v -5 18 8
v 7 18 8
v -4 18 7
v 6 18 7
v -4 18 -3
v 6 18 -3
v -5 18 -4
v 7 18 -4
v -5 22 8
v 7 22 8
v -4 22 7
v 6 22 7
v -4 22 -3
v 6 22 -3
v -5 22 -4
v 7 22 -4
v -4 24 7
v 6 24 7
v -4 24 -3
v 6 24 -3

# faces
f 3/1/1 2/1/1 1/1/1
f 4/1/1 2/1/1 3/1/1
f 7/1/1 6/1/1 5/1/1
f 8/1/1 6/1/1 7/1/1
f 11/1/1 10/1/1 9/1/1
f 12/1/1 10/1/1 11/1/1
f 15/1/1 14/1/1 13/1/1
f 16/1/1 14/1/1 15/1/1
f 19/2/1 18/2/1 17/2/1
f 20/2/1 18/2/1 19/2/1
f 23/2/1 22/2/1 21/2/1
f 24/2/1 22/2/1 23/2/1
f 27/2/1 26/2/1 25/2/1
f 28/2/1 26/2/1 27/2/1
f 31/2/1 30/2/1 29/2/1
f 32/2/1 30/2/1 31/2/1
f 35/2/1 34/2/1 33/2/1
f 36/2/1 34/2/1 35/2/1
f 39/3/1 38/3/1 37/3/1
f 40/3/1 38/3/1 39/3/1
f 41/3/2 42/3/2 43/3/2
f 43/3/2 42/3/2 44/3/2
f 45/2/2 46/2/2 47/2/2
f 47/2/2 46/2/2 48/2/2
f 49/2/2 50/2/2 51/2/2
f 51/2/2 50/2/2 52/2/2
f 53/2/2 54/2/2 55/2/2
f 55/2/2 54/2/2 56/2/2
f 57/2/2 58/2/2 59/2/2
f 59/2/2 58/2/2 60/2/2
f 61/2/2 62/2/2 63/2/2
f 63/2/2 62/2/2 64/2/2
f 65/1/2 66/1/2 67/1/2
f 67/1/2 66/1/2 68/1/2
f 69/1/2 70/1/2 71/1/2
f 71/1/2 70/1/2 72/1/2
f 73/1/2 74/1/2 75/1/2
f 75/1/2 74/1/2 76/1/2
f 77/1/2 78/1/2 79/1/2
f 79/1/2 78/1/2 80/1/2
f 89/1/3 82/1/3 81/1/3
f 90/1/3 82/1/3 89/1/3
f 91/1/3 84/1/3 83/1/3
f 92/1/3 84/1/3 91/1/3
f 93/1/3 86/1/3 85/1/3
f 94/1/3 86/1/3 93/1/3
f 95/1/3 88/1/3 87/1/3
f 96/1/3 88/1/3 95/1/3
f 107/2/3 98/2/3 97/2/3
f 108/2/3 98/2/3 107/2/3
f 109/2/3 100/2/3 99/2/3
f 110/2/3 100/2/3 109/2/3
f 111/2/3 102/2/3 101/2/3
f 112/2/3 102/2/3 111/2/3
f 113/2/3 104/2/3 103/2/3
f 114/2/3 104/2/3 113/2/3
f 115/2/3 106/2/3 105/2/3
f 116/2/3 106/2/3 115/2/3
f 119/3/3 118/3/3 117/3/3
f 120/3/3 118/3/3 119/3/3
f 121/3/4 122/3/4 123/3/4
f 123/3/4 122/3/4 124/3/4
f 125/2/4 126/2/4 135/2/4
f 135/2/4 126/2/4 136/2/4
f 127/2/4 128/2/4 137/2/4
f 137/2/4 128/2/4 138/2/4
f 129/2/4 130/2/4 139/2/4
f 139/2/4 130/2/4 140/2/4
f 131/2/4 132/2/4 141/2/4
f 141/2/4 132/2/4 142/2/4
f 133/2/4 134/2/4 143/2/4
f 143/2/4 134/2/4 144/2/4
f 145/1/4 146/1/4 153/1/4
f 153/1/4 146/1/4 154/1/4
f 147/1/4 148/1/4 155/1/4
f 155/1/4 148/1/4 156/1/4
f 149/1/4 150/1/4 157/1/4
f 157/1/4 150/1/4 158/1/4
f 151/1/4 152/1/4 159/1/4
f 159/1/4 152/1/4 160/1/4
f 163/3/5 162/3/5 161/3/5
f 164/3/5 162/3/5 163/3/5
f 167/2/5 166/2/5 165/2/5
f 168/2/5 166/2/5 167/2/5
f 169/2/5 167/2/5 165/2/5
f 170/2/5 166/2/5 168/2/5
f 171/2/5 169/2/5 165/2/5
f 171/2/5 170/2/5 169/2/5
f 172/2/5 166/2/5 170/2/5
f 172/2/5 170/2/5 171/2/5
f 175/1/5 174/1/5 173/1/5
f 176/1/5 174/1/5 175/1/5
f 177/1/5 175/1/5 173/1/5
f 178/1/5 174/1/5 176/1/5
f 179/1/5 177/1/5 173/1/5
f 179/1/5 178/1/5 177/1/5
f 180/1/5 174/1/5 178/1/5
f 180/1/5 178/1/5 179/1/5
f 183/1/5 182/1/5 181/1/5
f 184/1/5 182/1/5 183/1/5
f 185/1/5 183/1/5 181/1/5
f 186/1/5 182/1/5 184/1/5
f 187/1/5 185/1/5 181/1/5
f 187/1/5 186/1/5 185/1/5
f 188/1/5 182/1/5 186/1/5
f 188/1/5 186/1/5 187/1/5
f 191/1/5 190/1/5 189/1/5
f 192/1/5 190/1/5 191/1/5
f 193/1/5 191/1/5 189/1/5
f 194/1/5 190/1/5 192/1/5
f 195/1/5 193/1/5 189/1/5
f 195/1/5 194/1/5 193/1/5
f 196/1/5 190/1/5 194/1/5
f 196/1/5 194/1/5 195/1/5
f 199/1/5 198/1/5 197/1/5
f 200/1/5 198/1/5 199/1/5
f 201/1/5 199/1/5 197/1/5
f 202/1/5 198/1/5 200/1/5
f 203/1/5 201/1/5 197/1/5
f 203/1/5 202/1/5 201/1/5
f 204/1/5 198/1/5 202/1/5
f 204/1/5 202/1/5 203/1/5
f 205/1/6 206/1/6 207/1/6
f 207/1/6 206/1/6 208/1/6
f 205/1/6 207/1/6 209/1/6
f 208/1/6 206/1/6 210/1/6
f 205/1/6 209/1/6 211/1/6
f 209/1/6 210/1/6 211/1/6
f 210/1/6 206/1/6 212/1/6
f 211/1/6 210/1/6 212/1/6
f 213/1/6 214/1/6 215/1/6
f 215/1/6 214/1/6 216/1/6
f 213/1/6 215/1/6 217/1/6
f 216/1/6 214/1/6 218/1/6
f 213/1/6 217/1/6 219/1/6
f 217/1/6 218/1/6 219/1/6
f 218/1/6 214/1/6 220/1/6
f 219/1/6 218/1/6 220/1/6
f 221/1/6 222/1/6 223/1/6
f 223/1/6 222/1/6 224/1/6
f 221/1/6 223/1/6 225/1/6
f 224/1/6 222/1/6 226/1/6
f 221/1/6 225/1/6 227/1/6
f 225/1/6 226/1/6 227/1/6
f 226/1/6 222/1/6 228/1/6
f 227/1/6 226/1/6 228/1/6
f 229/1/6 230/1/6 231/1/6
f 231/1/6 230/1/6 232/1/6
f 229/1/6 231/1/6 233/1/6
f 232/1/6 230/1/6 234/1/6
f 229/1/6 233/1/6 235/1/6
f 233/1/6 234/1/6 235/1/6
f 234/1/6 230/1/6 236/1/6
f 235/1/6 234/1/6 236/1/6
f 237/2/6 238/2/6 239/2/6
f 239/2/6 238/2/6 240/2/6
