# MagicaVoxel @ Ephtracy

# group
g Pedra3

# material
mtllib Pedra3.mtl
usemtl palette

# normals
vn -1 0 0
vn 1 0 0
vn 0 0 1
vn 0 0 -1
vn 0 -1 0
vn 0 1 0

# texcoords
vt 0.990234 0.5
vt 0.994141 0.5

# verts
v -7 0 8
v -7 0 -8
v -7 14 8
v -7 14 -8
v -5 0 -8
v -5 0 -12
v -5 10 -8
v -5 10 -12
v 9 10 8
v 9 10 -8
v 9 14 8
v 9 14 -8
v 13 0 8
v 13 0 -12
v 13 10 8
v 13 10 -12
v -7 0 8
v -7 14 8
v 9 0 8
v 9 10 8
v 9 14 8
v 13 0 8
v 13 10 8
v -7 0 -8
v -7 14 -8
v -5 0 -8
v -5 10 -8
v 9 10 -8
v 9 14 -8
v -5 0 -12
v -5 10 -12
v 13 0 -12
v 13 10 -12
v -7 0 8
v 9 0 8
v 13 0 8
v -7 0 -8
v -5 0 -8
v 9 0 -8
v -5 0 -12
v 13 0 -12
v 9 10 8
v 13 10 8
v -5 10 -8
v 9 10 -8
v -5 10 -12
v 13 10 -12
v -7 14 8
v 9 14 8
v -7 14 -8
v 9 14 -8

# faces
f 3/1/1 2/1/1 1/1/1
f 4/1/1 2/1/1 3/1/1
f 7/2/1 6/2/1 5/2/1
f 8/2/1 6/2/1 7/2/1
f 9/1/2 10/1/2 11/1/2
f 11/1/2 10/1/2 12/1/2
f 13/2/2 14/2/2 15/2/2
f 15/2/2 14/2/2 16/2/2
f 19/1/3 18/1/3 17/1/3
f 20/1/3 18/1/3 19/1/3
f 21/1/3 18/1/3 20/1/3
f 22/2/3 20/2/3 19/2/3
f 23/2/3 20/2/3 22/2/3
f 24/1/4 25/1/4 26/1/4
f 26/1/4 25/1/4 27/1/4
f 27/1/4 25/1/4 28/1/4
f 28/1/4 25/1/4 29/1/4
f 30/2/4 31/2/4 32/2/4
f 32/2/4 31/2/4 33/2/4
f 37/1/5 35/1/5 34/1/5
f 38/1/5 35/1/5 37/1/5
f 39/2/5 36/2/5 35/2/5
f 39/1/5 35/1/5 38/1/5
f 40/2/5 39/2/5 38/2/5
f 41/2/5 36/2/5 39/2/5
f 41/2/5 39/2/5 40/2/5
f 42/2/6 43/2/6 45/2/6
f 44/2/6 45/2/6 46/2/6
f 45/2/6 43/2/6 47/2/6
f 46/2/6 45/2/6 47/2/6
f 48/1/6 49/1/6 50/1/6
f 50/1/6 49/1/6 51/1/6
