# MagicaVoxel @ Ephtracy

# group
g Pessoa 2

# material
mtllib Pessoa 2.mtl
usemtl palette

# normals
vn -1 0 0
vn 1 0 0
vn 0 0 1
vn 0 0 -1
vn 0 -1 0
vn 0 1 0

# texcoords
vt 0.0332031 0.5
vt 0.0683594 0.5
vt 0.939453 0.5
vt 0.943359 0.5
vt 0.947266 0.5
vt 0.951172 0.5
vt 0.970703 0.5
vt 0.974609 0.5
vt 0.978516 0.5
vt 0.982422 0.5
vt 0.986328 0.5
vt 0.990234 0.5

# verts
v -4 7 0.5
v -4 7 -1.5
v -4 8 -1.5
v -4 8 -2.5
v -4 11 0.5
v -4 11 -2.5
v -3 3 1.5
v -3 3 -0.5
v -3 4 1.5
v -3 4 0.5
v -3 4 -0.5
v -3 5 0.5
v -3 5 -0.5
v -3 6 1.5
v -3 6 0.5
v -3 6 -0.5
v -3 6 -2.5
v -3 7 2.5
v -3 7 1.5
v -3 7 0.5
v -3 7 -1.5
v -3 7 -2.5
v -3 7 -3.5
v -3 8 2.5
v -3 8 1.5
v -3 8 -1.5
v -3 8 -2.5
v -3 11 1.5
v -3 11 0.5
v -3 11 -1.5
v -3 11 -2.5
v -3 11 -3.5
v -3 12 0.5
v -3 12 -1.5
v -2 0 0.5
v -2 0 -0.5
v -2 2 0.5
v -2 2 -0.5
v -2 3 0.5
v -2 3 -0.5
v -2 3 -1.5
v -2 4 1.5
v -2 4 0.5
v -2 4 -0.5
v -2 4 -1.5
v -2 5 1.5
v -2 5 0.5
v -2 5 -0.5
v -2 5 -1.5
v -2 6 2.5
v -2 6 1.5
v -2 6 0.5
v -2 6 -0.5
v -2 6 -1.5
v -2 6 -2.5
v -2 6 -3.5
v -2 7 2.5
v -2 7 1.5
v -2 7 -2.5
v -2 7 -3.5
v -2 10 2.5
v -2 10 1.5
v -2 11 2.5
v -2 11 1.5
v -2 11 0.5
v -2 11 -1.5
v -2 11 -3.5
v -2 12 1.5
v -2 12 0.5
v -2 12 -1.5
v -2 12 -3.5
v -2 13 0.5
v -2 13 -1.5
v -1 5 2.5
v -1 5 1.5
v -1 6 2.5
v -1 6 1.5
v -1 11 2.5
v -1 11 1.5
v -1 12 2.5
v -1 12 1.5
v -1 12 0.5
v -1 13 1.5
v -1 13 0.5
v 0 12 -1.5
v 0 12 -2.5
v 0 13 -1.5
v 0 13 -2.5
v 1 0 0.5
v 1 0 -0.5
v 1 2 0.5
v 1 2 -0.5
v 1 3 0.5
v 1 3 -0.5
v 2 7 2.5
v 2 7 1.5
v 2 8 2.5
v 2 8 1.5
v -2 7 2.5
v -2 7 1.5
v -2 8 2.5
v -2 8 1.5
v -1 0 0.5
v -1 0 -0.5
v -1 2 0.5
v -1 2 -0.5
v -1 3 0.5
v -1 3 -0.5
v 1 5 2.5
v 1 5 1.5
v 1 6 2.5
v 1 6 1.5
v 2 0 0.5
v 2 0 -0.5
v 2 2 0.5
v 2 2 -0.5
v 2 3 0.5
v 2 3 -0.5
v 2 3 -1.5
v 2 4 1.5
v 2 4 0.5
v 2 4 -0.5
v 2 4 -1.5
v 2 5 1.5
v 2 5 0.5
v 2 5 -0.5
v 2 5 -1.5
v 2 6 2.5
v 2 6 1.5
v 2 6 0.5
v 2 6 -0.5
v 2 6 -1.5
v 2 6 -2.5
v 2 6 -3.5
v 2 7 2.5
v 2 7 0.5
v 2 7 -2.5
v 2 7 -3.5
v 2 10 2.5
v 2 10 1.5
v 2 11 -1.5
v 2 11 -3.5
v 2 12 2.5
v 2 12 1.5
v 2 12 -1.5
v 2 12 -2.5
v 2 12 -3.5
v 2 13 1.5
v 2 13 -2.5
v 3 3 1.5
v 3 3 -0.5
v 3 4 1.5
v 3 4 0.5
v 3 4 -0.5
v 3 5 0.5
v 3 5 -0.5
v 3 6 0.5
v 3 6 -0.5
v 3 6 -2.5
v 3 7 2.5
v 3 7 0.5
v 3 7 -2.5
v 3 7 -3.5
v 3 8 2.5
v 3 8 1.5
v 3 11 0.5
v 3 11 -1.5
v 3 11 -2.5
v 3 11 -3.5
v 3 12 1.5
v 3 12 -1.5
v 4 7 0.5
v 4 7 -2.5
v 4 11 0.5
v 4 11 -2.5
v -3 7 2.5
v -3 8 2.5
v -2 6 2.5
v -2 7 2.5
v -2 8 2.5
v -2 10 2.5
v -2 11 2.5
v -1 5 2.5
v -1 6 2.5
v -1 7 2.5
v -1 11 2.5
v -1 12 2.5
v 0 10 2.5
v 0 12 2.5
v 1 5 2.5
v 1 6 2.5
v 2 6 2.5
v 2 7 2.5
v 2 8 2.5
v 2 10 2.5
v 2 12 2.5
v 3 7 2.5
v 3 8 2.5
v -3 3 1.5
v -3 4 1.5
v -3 6 1.5
v -3 7 1.5
v -3 8 1.5
v -3 11 1.5
v -2 3 1.5
v -2 4 1.5
v -2 5 1.5
v -2 6 1.5
v -2 7 1.5
v -2 8 1.5
v -2 9 1.5
v -2 10 1.5
v -2 11 1.5
v -2 12 1.5
v -1 3 1.5
v -1 4 1.5
v -1 5 1.5
v -1 6 1.5
v -1 7 1.5
v -1 8 1.5
v -1 9 1.5
v -1 11 1.5
v -1 12 1.5
v -1 13 1.5
v 0 4 1.5
v 0 5 1.5
v 0 10 1.5
v 0 12 1.5
v 1 3 1.5
v 1 4 1.5
v 1 5 1.5
v 1 6 1.5
v 1 8 1.5
v 1 9 1.5
v 1 12 1.5
v 1 13 1.5
v 2 3 1.5
v 2 4 1.5
v 2 5 1.5
v 2 6 1.5
v 2 7 1.5
v 2 8 1.5
v 2 9 1.5
v 2 10 1.5
v 2 12 1.5
v 2 13 1.5
v 3 3 1.5
v 3 4 1.5
v 3 8 1.5
v 3 12 1.5
v -4 7 0.5
v -4 11 0.5
v -3 4 0.5
v -3 5 0.5
v -3 6 0.5
v -3 7 0.5
v -3 11 0.5
v -3 12 0.5
v -2 0 0.5
v -2 2 0.5
v -2 3 0.5
v -2 4 0.5
v -2 5 0.5
v -2 6 0.5
v -2 11 0.5
v -2 12 0.5
v -2 13 0.5
v -1 0 0.5
v -1 2 0.5
v -1 3 0.5
v -1 12 0.5
v -1 13 0.5
v 1 0 0.5
v 1 2 0.5
v 1 3 0.5
v 2 0 0.5
v 2 2 0.5
v 2 3 0.5
v 2 4 0.5
v 2 5 0.5
v 2 6 0.5
v 2 7 0.5
v 3 4 0.5
v 3 5 0.5
v 3 6 0.5
v 3 7 0.5
v 3 11 0.5
v 4 7 0.5
v 4 11 0.5
v -3 3 -0.5
v -3 4 -0.5
v -3 5 -0.5
v -3 6 -0.5
v -2 0 -0.5
v -2 2 -0.5
v -2 3 -0.5
v -2 4 -0.5
v -2 5 -0.5
v -2 6 -0.5
v -1 0 -0.5
v -1 2 -0.5
v -1 3 -0.5
v 1 0 -0.5
v 1 2 -0.5
v 1 3 -0.5
v 2 0 -0.5
v 2 2 -0.5
v 2 3 -0.5
v 2 4 -0.5
v 2 5 -0.5
v 2 6 -0.5
v 3 3 -0.5
v 3 4 -0.5
v 3 5 -0.5
v 3 6 -0.5
v -4 7 -1.5
v -4 8 -1.5
v -3 7 -1.5
v -3 8 -1.5
v -3 11 -1.5
v -3 12 -1.5
v -2 3 -1.5
v -2 4 -1.5
v -2 5 -1.5
v -2 6 -1.5
v -2 11 -1.5
v -2 12 -1.5
v -2 13 -1.5
v -1 3 -1.5
v -1 4 -1.5
v -1 5 -1.5
v -1 6 -1.5
v 0 3 -1.5
v 0 4 -1.5
v 0 5 -1.5
v 0 6 -1.5
v 0 12 -1.5
v 0 13 -1.5
v 1 3 -1.5
v 1 4 -1.5
v 1 5 -1.5
v 2 3 -1.5
v 2 4 -1.5
v 2 5 -1.5
v 2 6 -1.5
v 2 11 -1.5
v 2 12 -1.5
v 3 11 -1.5
v 3 12 -1.5
v -4 8 -2.5
v -4 11 -2.5
v -3 6 -2.5
v -3 7 -2.5
v -3 8 -2.5
v -3 11 -2.5
v -2 6 -2.5
v -2 7 -2.5
v 0 12 -2.5
v 0 13 -2.5
v 2 6 -2.5
v 2 7 -2.5
v 2 12 -2.5
v 2 13 -2.5
v 3 6 -2.5
v 3 7 -2.5
v 3 11 -2.5
v 4 7 -2.5
v 4 11 -2.5
v -3 7 -3.5
v -3 11 -3.5
v -2 6 -3.5
v -2 7 -3.5
v -2 11 -3.5
v -2 12 -3.5
v -1 6 -3.5
v -1 7 -3.5
v 0 7 -3.5
v 0 8 -3.5
v 0 10 -3.5
v 0 12 -3.5
v 1 8 -3.5
v 1 9 -3.5
v 2 6 -3.5
v 2 7 -3.5
v 2 9 -3.5
v 2 10 -3.5
v 2 11 -3.5
v 2 12 -3.5
v 3 7 -3.5
v 3 11 -3.5
v -2 0 0.5
v -1 0 0.5
v 1 0 0.5
v 2 0 0.5
v -2 0 -0.5
v -1 0 -0.5
v 1 0 -0.5
v 2 0 -0.5
v -3 3 1.5
v -2 3 1.5
v -1 3 1.5
v 1 3 1.5
v 2 3 1.5
v 3 3 1.5
v -2 3 0.5
v -1 3 0.5
v 1 3 0.5
v 2 3 0.5
v -3 3 -0.5
v -2 3 -0.5
v -1 3 -0.5
v 0 3 -0.5
v 1 3 -0.5
v 2 3 -0.5
v 3 3 -0.5
v -2 3 -1.5
v -1 3 -1.5
v 0 3 -1.5
v 1 3 -1.5
v 2 3 -1.5
v -1 5 2.5
v 1 5 2.5
v -1 5 1.5
v 0 5 1.5
v 1 5 1.5
v -2 6 2.5
v -1 6 2.5
v 1 6 2.5
v 2 6 2.5
v -3 6 1.5
v -2 6 1.5
v -1 6 1.5
v 1 6 1.5
v 2 6 1.5
v -3 6 0.5
v -2 6 0.5
v -3 6 -0.5
v -2 6 -0.5
v 2 6 -0.5
v 3 6 -0.5
v -2 6 -1.5
v -1 6 -1.5
v 0 6 -1.5
v 2 6 -1.5
v -3 6 -2.5
v -2 6 -2.5
v -1 6 -2.5
v 0 6 -2.5
v 2 6 -2.5
v 3 6 -2.5
v -2 6 -3.5
v -1 6 -3.5
v 2 6 -3.5
v -3 7 2.5
v -2 7 2.5
v 2 7 2.5
v 3 7 2.5
v -3 7 1.5
v -2 7 1.5
v -4 7 0.5
v -3 7 0.5
v 2 7 0.5
v 3 7 0.5
v 4 7 0.5
v -4 7 -1.5
v -3 7 -1.5
v -3 7 -2.5
v -2 7 -2.5
v 2 7 -2.5
v 3 7 -2.5
v 4 7 -2.5
v -3 7 -3.5
v -2 7 -3.5
v 2 7 -3.5
v 3 7 -3.5
v -4 8 -1.5
v -3 8 -1.5
v -4 8 -2.5
v -3 8 -2.5
v -2 10 2.5
v 0 10 2.5
v 2 10 2.5
v -2 10 1.5
v 0 10 1.5
v 2 10 1.5
v -3 4 1.5
v -2 4 1.5
v 2 4 1.5
v 3 4 1.5
v -3 4 0.5
v -2 4 0.5
v 2 4 0.5
v 3 4 0.5
v -2 7 2.5
v -1 7 2.5
v 2 7 2.5
v -2 7 1.5
v -1 7 1.5
v 2 7 1.5
v -3 8 2.5
v -2 8 2.5
v 2 8 2.5
v 3 8 2.5
v -3 8 1.5
v -2 8 1.5
v 2 8 1.5
v 3 8 1.5
v -2 11 2.5
v -1 11 2.5
v -3 11 1.5
v -2 11 1.5
v -1 11 1.5
v -4 11 0.5
v -3 11 0.5
v -2 11 0.5
v 3 11 0.5
v 4 11 0.5
v -3 11 -1.5
v -2 11 -1.5
v 2 11 -1.5
v 3 11 -1.5
v -4 11 -2.5
v -3 11 -2.5
v 3 11 -2.5
v 4 11 -2.5
v -3 11 -3.5
v -2 11 -3.5
v 2 11 -3.5
v 3 11 -3.5
v -1 12 2.5
v 0 12 2.5
v 2 12 2.5
v -2 12 1.5
v -1 12 1.5
v 0 12 1.5
v 1 12 1.5
v 2 12 1.5
v 3 12 1.5
v -3 12 0.5
v -2 12 0.5
v -1 12 0.5
v -3 12 -1.5
v -2 12 -1.5
v 0 12 -1.5
v 2 12 -1.5
v 3 12 -1.5
v 0 12 -2.5
v 2 12 -2.5
v -2 12 -3.5
v 0 12 -3.5
v 2 12 -3.5
v -1 13 1.5
v 1 13 1.5
v 2 13 1.5
v -2 13 0.5
v -1 13 0.5
v 0 13 0.5
v 1 13 0.5
v -2 13 -1.5
v 0 13 -1.5
v 0 13 -2.5
v 2 13 -2.5

# faces
f 3/6/1 2/6/1 1/6/1
f 5/6/1 3/6/1 1/6/1
f 5/6/1 4/6/1 3/6/1
f 6/6/1 4/6/1 5/6/1
f 9/11/1 8/11/1 7/11/1
f 10/11/1 8/11/1 9/11/1
f 11/11/1 8/11/1 10/11/1
f 12/9/1 11/9/1 10/9/1
f 13/9/1 11/9/1 12/9/1
f 15/10/1 13/10/1 12/10/1
f 16/10/1 13/10/1 15/10/1
f 19/6/1 16/6/1 15/6/1
f 19/6/1 17/6/1 16/6/1
f 19/6/1 15/6/1 14/6/1
f 20/6/1 17/6/1 19/6/1
f 21/6/1 17/6/1 20/6/1
f 22/6/1 17/6/1 21/6/1
f 24/6/1 19/6/1 18/6/1
f 24/6/1 20/6/1 19/6/1
f 25/6/1 20/6/1 24/6/1
f 26/6/1 23/6/1 22/6/1
f 26/6/1 22/6/1 21/6/1
f 27/6/1 23/6/1 26/6/1
f 28/6/1 20/6/1 25/6/1
f 29/6/1 20/6/1 28/6/1
f 31/6/1 23/6/1 27/6/1
f 32/6/1 23/6/1 31/6/1
f 33/6/1 30/6/1 29/6/1
f 34/6/1 30/6/1 33/6/1
f 37/5/1 36/5/1 35/5/1
f 38/5/1 36/5/1 37/5/1
f 39/3/1 38/3/1 37/3/1
f 40/3/1 38/3/1 39/3/1
f 44/4/1 41/4/1 40/4/1
f 45/4/1 41/4/1 44/4/1
f 46/9/1 43/9/1 42/9/1
f 47/9/1 43/9/1 46/9/1
f 48/10/1 45/10/1 44/10/1
f 49/10/1 45/10/1 48/10/1
f 51/10/1 47/10/1 46/10/1
f 52/10/1 47/10/1 51/10/1
f 53/9/1 49/9/1 48/9/1
f 54/9/1 49/9/1 53/9/1
f 57/6/1 51/6/1 50/6/1
f 58/6/1 51/6/1 57/6/1
f 59/6/1 56/6/1 55/6/1
f 60/6/1 56/6/1 59/6/1
f 63/6/1 62/6/1 61/6/1
f 64/6/1 62/6/1 63/6/1
f 68/6/1 65/6/1 64/6/1
f 69/6/1 65/6/1 68/6/1
f 70/6/1 67/6/1 66/6/1
f 71/6/1 67/6/1 70/6/1
f 72/6/1 70/6/1 69/6/1
f 73/6/1 70/6/1 72/6/1
f 76/7/1 75/7/1 74/7/1
f 77/7/1 75/7/1 76/7/1
f 80/6/1 79/6/1 78/6/1
f 81/6/1 79/6/1 80/6/1
f 83/6/1 82/6/1 81/6/1
f 84/6/1 82/6/1 83/6/1
f 87/7/1 86/7/1 85/7/1
f 88/7/1 86/7/1 87/7/1
f 91/5/1 90/5/1 89/5/1
f 92/5/1 90/5/1 91/5/1
f 93/4/1 92/4/1 91/4/1
f 94/4/1 92/4/1 93/4/1
f 97/7/1 96/7/1 95/7/1
f 98/7/1 96/7/1 97/7/1
f 99/6/2 100/6/2 101/6/2
f 101/6/2 100/6/2 102/6/2
f 103/5/2 104/5/2 105/5/2
f 105/5/2 104/5/2 106/5/2
f 105/3/2 106/3/2 107/3/2
f 107/3/2 106/3/2 108/3/2
f 109/7/2 110/7/2 111/7/2
f 111/7/2 110/7/2 112/7/2
f 113/5/2 114/5/2 115/5/2
f 115/5/2 114/5/2 116/5/2
f 115/4/2 116/4/2 117/4/2
f 117/4/2 116/4/2 118/4/2
f 118/3/2 119/3/2 122/3/2
f 122/3/2 119/3/2 123/3/2
f 120/10/2 121/10/2 124/10/2
f 124/10/2 121/10/2 125/10/2
f 122/9/2 123/9/2 126/9/2
f 126/9/2 123/9/2 127/9/2
f 124/9/2 125/9/2 129/9/2
f 129/9/2 125/9/2 130/9/2
f 126/10/2 127/10/2 131/10/2
f 131/10/2 127/10/2 132/10/2
f 129/7/2 130/7/2 135/7/2
f 128/7/2 129/7/2 135/7/2
f 135/7/2 130/7/2 136/7/2
f 133/7/2 134/7/2 137/7/2
f 137/7/2 134/7/2 138/7/2
f 139/7/2 140/7/2 143/7/2
f 143/7/2 140/7/2 144/7/2
f 141/7/2 142/7/2 145/7/2
f 145/7/2 142/7/2 146/7/2
f 146/7/2 142/7/2 147/7/2
f 144/7/2 145/7/2 148/7/2
f 145/7/2 146/7/2 148/7/2
f 148/7/2 146/7/2 149/7/2
f 150/11/2 151/11/2 152/11/2
f 152/11/2 151/11/2 153/11/2
f 153/11/2 151/11/2 154/11/2
f 153/9/2 154/9/2 155/9/2
f 155/9/2 154/9/2 156/9/2
f 155/10/2 156/10/2 157/10/2
f 157/10/2 156/10/2 158/10/2
f 157/7/2 158/7/2 161/7/2
f 158/7/2 159/7/2 161/7/2
f 161/7/2 159/7/2 162/7/2
f 160/7/2 161/7/2 164/7/2
f 164/7/2 161/7/2 165/7/2
f 165/7/2 161/7/2 166/7/2
f 162/7/2 163/7/2 168/7/2
f 168/7/2 163/7/2 169/7/2
f 166/7/2 167/7/2 170/7/2
f 165/7/2 166/7/2 170/7/2
f 170/7/2 167/7/2 171/7/2
f 172/7/2 173/7/2 174/7/2
f 174/7/2 173/7/2 175/7/2
f 179/6/3 177/6/3 176/6/3
f 180/6/3 177/6/3 179/6/3
f 184/6/3 179/6/3 178/6/3
f 185/6/3 179/6/3 184/6/3
f 186/6/3 182/6/3 181/6/3
f 188/6/3 186/6/3 181/6/3
f 188/6/3 187/6/3 186/6/3
f 189/6/3 187/6/3 188/6/3
f 190/7/3 185/7/3 184/7/3
f 190/7/3 184/7/3 183/7/3
f 191/7/3 185/7/3 190/7/3
f 192/7/3 185/7/3 191/7/3
f 193/7/3 185/7/3 192/7/3
f 195/7/3 189/7/3 188/7/3
f 196/7/3 189/7/3 195/7/3
f 197/7/3 194/7/3 193/7/3
f 198/7/3 194/7/3 197/7/3
f 205/11/3 200/11/3 199/11/3
f 206/11/3 200/11/3 205/11/3
f 208/6/3 202/6/3 201/6/3
f 209/6/3 202/6/3 208/6/3
f 210/6/3 204/6/3 203/6/3
f 211/6/3 204/6/3 210/6/3
f 212/6/3 204/6/3 211/6/3
f 213/6/3 204/6/3 212/6/3
f 215/4/3 206/4/3 205/4/3
f 216/9/3 207/9/3 206/9/3
f 216/4/3 206/4/3 215/4/3
f 217/10/3 208/10/3 207/10/3
f 217/9/3 207/9/3 216/9/3
f 218/10/3 208/10/3 217/10/3
f 219/11/3 210/11/3 209/11/3
f 220/12/3 211/12/3 210/12/3
f 220/11/3 210/11/3 219/11/3
f 221/11/3 212/11/3 211/11/3
f 221/12/3 211/12/3 220/12/3
f 222/6/3 214/6/3 213/6/3
f 223/6/3 214/6/3 222/6/3
f 225/3/3 216/3/3 215/3/3
f 225/9/3 217/9/3 216/9/3
f 226/9/3 217/9/3 225/9/3
f 227/11/3 212/11/3 221/11/3
f 227/11/3 220/11/3 219/11/3
f 227/11/3 221/11/3 220/11/3
f 228/6/3 224/6/3 223/6/3
f 229/3/3 225/3/3 215/3/3
f 230/10/3 226/10/3 225/10/3
f 230/3/3 225/3/3 229/3/3
f 231/10/3 226/10/3 230/10/3
f 233/11/3 227/11/3 219/11/3
f 234/11/3 227/11/3 233/11/3
f 235/6/3 224/6/3 228/6/3
f 236/6/3 224/6/3 235/6/3
f 237/4/3 230/4/3 229/4/3
f 238/10/3 231/10/3 230/10/3
f 238/4/3 230/4/3 237/4/3
f 239/9/3 232/9/3 231/9/3
f 239/10/3 231/10/3 238/10/3
f 240/9/3 232/9/3 239/9/3
f 241/11/3 233/11/3 219/11/3
f 242/12/3 234/12/3 233/12/3
f 242/11/3 233/11/3 241/11/3
f 243/11/3 227/11/3 234/11/3
f 243/12/3 234/12/3 242/12/3
f 244/11/3 227/11/3 243/11/3
f 245/7/3 236/7/3 235/7/3
f 246/7/3 236/7/3 245/7/3
f 247/11/3 238/11/3 237/11/3
f 248/11/3 238/11/3 247/11/3
f 249/7/3 245/7/3 244/7/3
f 249/7/3 244/7/3 243/7/3
f 249/7/3 243/7/3 242/7/3
f 250/7/3 245/7/3 249/7/3
f 256/6/3 252/6/3 251/6/3
f 257/6/3 252/6/3 256/6/3
f 262/9/3 254/9/3 253/9/3
f 263/10/3 255/10/3 254/10/3
f 263/9/3 254/9/3 262/9/3
f 264/10/3 255/10/3 263/10/3
f 265/6/3 258/6/3 257/6/3
f 266/6/3 258/6/3 265/6/3
f 268/5/3 260/5/3 259/5/3
f 269/3/3 261/3/3 260/3/3
f 269/5/3 260/5/3 268/5/3
f 270/3/3 261/3/3 269/3/3
f 271/6/3 267/6/3 266/6/3
f 272/6/3 267/6/3 271/6/3
f 276/5/3 274/5/3 273/5/3
f 277/4/3 275/4/3 274/4/3
f 277/5/3 274/5/3 276/5/3
f 278/4/3 275/4/3 277/4/3
f 283/9/3 280/9/3 279/9/3
f 284/10/3 281/10/3 280/10/3
f 284/9/3 280/9/3 283/9/3
f 285/7/3 282/7/3 281/7/3
f 285/10/3 281/10/3 284/10/3
f 286/7/3 282/7/3 285/7/3
f 288/7/3 287/7/3 286/7/3
f 289/7/3 287/7/3 288/7/3
f 290/11/4 291/11/4 296/11/4
f 291/9/4 292/9/4 297/9/4
f 296/11/4 291/11/4 297/11/4
f 292/10/4 293/10/4 298/10/4
f 297/9/4 292/9/4 298/9/4
f 298/10/4 293/10/4 299/10/4
f 294/5/4 295/5/4 300/5/4
f 295/3/4 296/3/4 301/3/4
f 300/5/4 295/5/4 301/5/4
f 301/3/4 296/3/4 302/3/4
f 303/5/4 304/5/4 306/5/4
f 304/4/4 305/4/4 307/4/4
f 306/5/4 304/5/4 307/5/4
f 307/4/4 305/4/4 308/4/4
f 308/11/4 309/11/4 312/11/4
f 309/9/4 310/9/4 313/9/4
f 312/11/4 309/11/4 313/11/4
f 310/10/4 311/10/4 314/10/4
f 313/9/4 310/9/4 314/9/4
f 314/10/4 311/10/4 315/10/4
f 316/6/4 317/6/4 318/6/4
f 318/6/4 317/6/4 319/6/4
f 320/6/4 321/6/4 326/6/4
f 326/6/4 321/6/4 327/6/4
f 322/4/4 323/4/4 329/4/4
f 323/10/4 324/10/4 330/10/4
f 329/4/4 323/4/4 330/4/4
f 324/9/4 325/9/4 331/9/4
f 330/10/4 324/10/4 331/10/4
f 331/9/4 325/9/4 332/9/4
f 329/3/4 330/3/4 333/3/4
f 330/9/4 331/9/4 334/9/4
f 333/3/4 330/3/4 334/3/4
f 331/10/4 332/10/4 335/10/4
f 334/9/4 331/9/4 335/9/4
f 335/10/4 332/10/4 336/10/4
f 327/6/4 328/6/4 337/6/4
f 337/6/4 328/6/4 338/6/4
f 333/4/4 334/4/4 339/4/4
f 335/10/4 336/10/4 340/10/4
f 339/4/4 334/4/4 340/4/4
f 334/10/4 335/10/4 340/10/4
f 340/10/4 336/10/4 341/10/4
f 339/3/4 340/3/4 342/3/4
f 340/9/4 341/9/4 343/9/4
f 342/3/4 340/3/4 343/3/4
f 341/10/4 336/10/4 344/10/4
f 343/9/4 341/9/4 344/9/4
f 344/10/4 336/10/4 345/10/4
f 346/7/4 347/7/4 348/7/4
f 348/7/4 347/7/4 349/7/4
f 350/6/4 351/6/4 354/6/4
f 354/6/4 351/6/4 355/6/4
f 352/6/4 353/6/4 356/6/4
f 356/6/4 353/6/4 357/6/4
f 358/7/4 359/7/4 362/7/4
f 362/7/4 359/7/4 363/7/4
f 360/7/4 361/7/4 364/7/4
f 364/7/4 361/7/4 365/7/4
f 365/7/4 366/7/4 367/7/4
f 367/7/4 366/7/4 368/7/4
f 369/6/4 370/6/4 372/6/4
f 372/6/4 370/6/4 373/6/4
f 371/6/4 372/6/4 375/6/4
f 373/6/4 374/6/4 375/6/4
f 372/6/4 373/6/4 375/6/4
f 375/6/4 374/6/4 376/6/4
f 375/7/4 376/7/4 377/7/4
f 376/6/4 374/6/4 377/6/4
f 377/6/4 374/6/4 378/6/4
f 378/6/4 374/6/4 379/6/4
f 379/6/4 374/6/4 380/6/4
f 377/7/4 378/7/4 381/7/4
f 378/6/4 379/6/4 381/6/4
f 381/6/4 379/6/4 382/6/4
f 375/7/4 377/7/4 383/7/4
f 377/7/4 381/7/4 383/7/4
f 381/7/4 382/7/4 383/7/4
f 383/7/4 382/7/4 384/7/4
f 382/6/4 379/6/4 385/6/4
f 384/7/4 382/7/4 385/7/4
f 379/7/4 380/7/4 386/7/4
f 385/6/4 379/6/4 386/6/4
f 386/7/4 380/7/4 387/7/4
f 387/7/4 380/7/4 388/7/4
f 384/7/4 385/7/4 389/7/4
f 386/7/4 387/7/4 389/7/4
f 385/7/4 386/7/4 389/7/4
f 389/7/4 387/7/4 390/7/4
f 395/5/5 392/5/5 391/5/5
f 396/5/5 392/5/5 395/5/5
f 397/5/5 394/5/5 393/5/5
f 398/5/5 394/5/5 397/5/5
f 405/11/5 400/11/5 399/11/5
f 405/4/5 401/4/5 400/4/5
f 406/3/5 402/3/5 401/3/5
f 406/4/5 401/4/5 405/4/5
f 407/4/5 403/4/5 402/4/5
f 407/3/5 402/3/5 406/3/5
f 408/11/5 404/11/5 403/11/5
f 408/4/5 403/4/5 407/4/5
f 409/11/5 405/11/5 399/11/5
f 410/11/5 405/11/5 409/11/5
f 411/3/5 407/3/5 406/3/5
f 412/3/5 407/3/5 411/3/5
f 413/3/5 407/3/5 412/3/5
f 414/11/5 404/11/5 408/11/5
f 415/11/5 404/11/5 414/11/5
f 416/4/5 411/4/5 410/4/5
f 417/3/5 412/3/5 411/3/5
f 417/4/5 411/4/5 416/4/5
f 418/4/5 413/4/5 412/4/5
f 418/3/5 412/3/5 417/3/5
f 419/3/5 414/3/5 413/3/5
f 419/4/5 413/4/5 418/4/5
f 420/3/5 414/3/5 419/3/5
f 423/7/5 422/7/5 421/7/5
f 424/7/5 422/7/5 423/7/5
f 425/7/5 422/7/5 424/7/5
f 431/6/5 427/6/5 426/6/5
f 432/6/5 427/6/5 431/6/5
f 433/7/5 429/7/5 428/7/5
f 434/7/5 429/7/5 433/7/5
f 435/6/5 431/6/5 430/6/5
f 436/6/5 431/6/5 435/6/5
f 441/6/5 438/6/5 437/6/5
f 444/7/5 440/7/5 439/7/5
f 445/6/5 443/6/5 442/6/5
f 445/6/5 441/6/5 437/6/5
f 445/6/5 442/6/5 441/6/5
f 446/6/5 443/6/5 445/6/5
f 447/6/5 443/6/5 446/6/5
f 448/7/5 444/7/5 443/7/5
f 448/6/5 443/6/5 447/6/5
f 449/7/5 440/7/5 444/7/5
f 449/7/5 444/7/5 448/7/5
f 450/7/5 440/7/5 449/7/5
f 451/6/5 447/6/5 446/6/5
f 452/7/5 448/7/5 447/7/5
f 452/6/5 447/6/5 451/6/5
f 452/7/5 449/7/5 448/7/5
f 453/7/5 449/7/5 452/7/5
f 458/6/5 455/6/5 454/6/5
f 459/6/5 455/6/5 458/6/5
f 462/7/5 457/7/5 456/7/5
f 463/7/5 457/7/5 462/7/5
f 465/6/5 461/6/5 460/6/5
f 466/6/5 461/6/5 465/6/5
f 470/7/5 464/7/5 463/7/5
f 471/7/5 464/7/5 470/7/5
f 472/6/5 468/6/5 467/6/5
f 473/6/5 468/6/5 472/6/5
f 474/7/5 470/7/5 469/7/5
f 475/7/5 470/7/5 474/7/5
f 478/6/5 477/6/5 476/6/5
f 479/6/5 477/6/5 478/6/5
f 483/6/5 481/6/5 480/6/5
f 484/7/5 482/7/5 481/7/5
f 484/6/5 481/6/5 483/6/5
f 485/7/5 482/7/5 484/7/5
f 486/11/6 487/11/6 490/11/6
f 490/11/6 487/11/6 491/11/6
f 488/11/6 489/11/6 492/11/6
f 492/11/6 489/11/6 493/11/6
f 494/6/6 495/6/6 497/6/6
f 495/7/6 496/7/6 498/7/6
f 497/6/6 495/6/6 498/6/6
f 498/7/6 496/7/6 499/7/6
f 500/6/6 501/6/6 504/6/6
f 504/6/6 501/6/6 505/6/6
f 502/7/6 503/7/6 506/7/6
f 506/7/6 503/7/6 507/7/6
f 508/6/6 509/6/6 511/6/6
f 511/6/6 509/6/6 512/6/6
f 510/6/6 511/6/6 514/6/6
f 514/6/6 511/6/6 515/6/6
f 513/6/6 514/6/6 518/6/6
f 516/7/6 517/7/6 521/7/6
f 518/6/6 519/6/6 522/6/6
f 513/6/6 518/6/6 522/6/6
f 522/6/6 519/6/6 523/6/6
f 520/7/6 521/7/6 524/7/6
f 521/7/6 517/7/6 524/7/6
f 524/7/6 517/7/6 525/7/6
f 523/6/6 519/6/6 526/6/6
f 526/6/6 519/6/6 527/6/6
f 520/7/6 524/7/6 528/7/6
f 528/7/6 524/7/6 529/7/6
f 530/6/6 531/6/6 534/6/6
f 531/7/6 532/7/6 535/7/6
f 534/6/6 531/6/6 535/6/6
f 535/7/6 532/7/6 536/7/6
f 536/7/6 532/7/6 537/7/6
f 533/6/6 534/6/6 540/6/6
f 540/6/6 534/6/6 541/6/6
f 539/6/6 540/6/6 542/6/6
f 542/6/6 540/6/6 543/6/6
f 537/7/6 538/7/6 545/7/6
f 545/7/6 538/7/6 546/7/6
f 543/6/6 544/6/6 547/6/6
f 543/6/6 547/6/6 549/6/6
f 547/7/6 548/7/6 550/7/6
f 549/6/6 547/6/6 550/6/6
f 550/7/6 548/7/6 551/7/6
f 552/6/6 553/6/6 556/6/6
f 556/6/6 553/6/6 557/6/6
f 553/7/6 554/7/6 558/7/6
f 557/6/6 553/6/6 558/6/6
f 556/6/6 557/6/6 559/6/6
f 555/6/6 556/6/6 559/6/6
f 557/7/6 558/7/6 560/7/6
f 559/6/6 557/6/6 560/6/6
f 560/7/6 558/7/6 561/7/6
f 558/7/6 554/7/6 562/7/6
f 561/7/6 558/7/6 562/7/6
